<svg width="25" height="24" viewBox="0 0 25 24" fill="none" xmlns="http://www.w3.org/2000/svg">
<path d="M17.4112 4.03955H8.04575C5.23612 4.03955 3.36304 5.44436 3.36304 8.72226V15.2781C3.36304 18.5559 5.23612 19.9608 8.04575 19.9608H17.4112C20.2208 19.9608 22.0939 18.5559 22.0939 15.2781V8.72226C22.0939 5.44436 20.2208 4.03955 17.4112 4.03955ZM17.8513 9.74309L14.92 12.0844C14.3018 12.5808 13.5151 12.8243 12.7285 12.8243C11.9418 12.8243 11.1457 12.5808 10.5369 12.0844L7.60557 9.74309C7.30588 9.49959 7.25905 9.05005 7.49319 8.75036C7.73669 8.45066 8.17686 8.39447 8.47656 8.63797L11.4079 10.9793C12.1197 11.5506 13.3278 11.5506 14.0396 10.9793L16.971 8.63797C17.2707 8.39447 17.7202 8.4413 17.9544 8.75036C18.1979 9.05005 18.151 9.49959 17.8513 9.74309Z" fill="white"/>
</svg>
