<svg width="24" height="24" viewBox="0 0 24 24" fill="none" xmlns="http://www.w3.org/2000/svg">
<path d="M21.226 12.214C21.226 11.5464 21.1661 10.9045 21.0548 10.2883H12.1884V13.9342H17.2549C17.0324 15.1067 16.3648 16.0994 15.3635 16.767V19.1377H18.4188C20.199 17.4945 21.226 15.081 21.226 12.214Z" fill="#4285F4"/>
<path d="M12.1883 21.4143C14.7302 21.4143 16.8612 20.5756 18.4188 19.1378L15.3635 16.7671C14.5248 17.332 13.455 17.6743 12.1883 17.6743C9.74066 17.6743 7.66099 16.0225 6.91641 13.7974H3.78406V16.2279C5.33312 19.3004 8.50826 21.4143 12.1883 21.4143Z" fill="#34A853"/>
<path d="M6.91641 13.789C6.72812 13.2241 6.61686 12.625 6.61686 12.0003C6.61686 11.3755 6.72812 10.7764 6.91641 10.2116V7.78101H3.78405C3.14218 9.04764 2.77417 10.4769 2.77417 12.0003C2.77417 13.5237 3.14218 14.9529 3.78405 16.2195L6.22318 14.3196L6.91641 13.789Z" fill="#FBBC05"/>
<path d="M12.1883 6.33449C13.5748 6.33449 14.8072 6.81376 15.7914 7.73806L18.4873 5.04218C16.8526 3.5188 14.7302 2.58594 12.1883 2.58594C8.50826 2.58594 5.33312 4.69985 3.78406 7.78085L6.91641 10.2114C7.66099 7.98625 9.74066 6.33449 12.1883 6.33449Z" fill="#EA4335"/>
</svg>
